<?xml version="1.0" standalone="no"?>
<!DOCTYPE svg PUBLIC "-//W3C//DTD SVG 20010904//EN"
 "http://www.w3.org/TR/2001/REC-SVG-20010904/DTD/svg10.dtd">
<svg version="1.0" xmlns="http://www.w3.org/2000/svg"
 width="1000.000000pt" height="1000.000000pt" viewBox="0 0 1000.000000 1000.000000"
 preserveAspectRatio="xMidYMid meet">

<g transform="translate(0.000000,1000.000000) scale(0.100000,-0.100000)"
fill="#000000" stroke="none">
<path d="M0 5000 l0 -5000 5000 0 5000 0 0 5000 0 5000 -5000 0 -5000 0 0
-5000z m4084 3164 c36 -14 10 -64 -33 -64 -15 0 -70 -14 -124 -30 -251 -75
-456 -239 -568 -453 -47 -91 -55 -113 -74 -222 -39 -213 10 -400 152 -587 50
-65 190 -187 307 -268 12 -8 49 -36 81 -61 33 -25 87 -64 120 -87 33 -23 101
-71 150 -107 50 -37 106 -77 125 -91 65 -45 196 -139 306 -218 113 -82 131
-95 299 -212 112 -79 347 -246 385 -275 14 -10 57 -40 95 -65 39 -26 129 -91
200 -144 72 -53 155 -113 185 -133 30 -21 89 -62 130 -92 41 -29 111 -78 155
-109 141 -98 169 -118 232 -165 35 -25 85 -62 113 -81 69 -48 234 -174 358
-273 104 -83 132 -105 213 -165 76 -57 296 -262 403 -377 201 -215 337 -390
466 -595 60 -95 185 -342 210 -414 10 -28 31 -89 47 -136 31 -89 71 -248 98
-386 19 -103 22 -493 3 -512 -17 -17 -2169 -17 -2186 0 -14 14 2 38 27 38 9 0
59 14 111 30 245 80 442 234 564 443 83 142 100 205 100 367 0 158 -13 211
-81 342 -59 113 -121 186 -231 276 -97 80 -160 126 -430 314 -40 28 -73 52
-181 129 -46 34 -129 92 -185 131 -56 38 -119 83 -141 99 -22 16 -51 37 -65
47 -14 9 -63 45 -110 79 -47 35 -98 72 -115 84 -54 37 -599 427 -652 466 -29
21 -75 54 -103 73 -28 19 -85 61 -128 94 -42 32 -108 80 -147 107 -100 69
-187 131 -654 471 -203 147 -429 328 -593 475 -433 388 -702 774 -903 1293
-25 65 -67 222 -101 378 -32 152 -56 550 -34 577 11 13 136 15 1100 15 599 0
1095 -3 1104 -6z m4034 -6 c9 -9 12 -131 12 -488 l0 -475 -29 -165 c-46 -259
-98 -431 -195 -649 -91 -203 -185 -362 -342 -580 -89 -124 -314 -362 -475
-501 -134 -116 -412 -310 -445 -310 -11 0 -54 26 -96 58 -43 31 -127 93 -187
137 -61 44 -148 108 -193 143 -46 34 -100 74 -120 87 -75 50 -77 47 103 222
206 201 307 329 428 540 143 251 215 497 228 770 13 294 -64 563 -224 778 -63
85 -184 193 -278 250 -99 59 -253 117 -339 127 -37 4 -55 30 -37 52 12 14 120
16 1095 16 828 0 1085 -3 1094 -12z m-3240 -20 c9 -9 12 -228 12 -925 0 -1004
4 -946 -60 -907 -61 38 -305 210 -327 231 l-23 22 0 784 c0 596 3 786 12 795
8 8 66 12 193 12 127 0 185 -4 193 -12z m640 0 c9 -9 12 -277 12 -1144 0
-1248 4 -1177 -60 -1138 -54 33 -314 218 -332 237 -17 16 -18 76 -18 1021 0
900 2 1006 16 1020 13 13 45 16 193 16 124 0 181 -4 189 -12z m-2126 -3146
c14 -9 46 -31 70 -48 23 -16 67 -47 97 -68 30 -21 85 -62 122 -90 37 -28 98
-71 134 -96 112 -76 215 -160 215 -175 0 -7 -43 -49 -96 -91 -312 -251 -536
-572 -645 -924 -16 -52 -33 -108 -39 -125 -41 -132 -58 -461 -31 -625 16 -99
68 -248 117 -339 140 -255 391 -455 649 -516 82 -20 101 -31 84 -51 -10 -12
-191 -14 -1094 -14 -959 0 -1084 2 -1095 15 -10 12 -12 96 -7 393 6 377 22
612 53 757 8 39 21 104 30 145 43 206 176 541 300 757 49 85 165 256 230 338
185 235 458 491 729 680 39 27 83 59 98 72 34 28 44 28 79 5z m1298 -947 c91
-63 173 -125 183 -136 16 -20 17 -84 17 -1024 0 -918 -1 -1004 -16 -1016 -13
-10 -62 -15 -190 -16 -146 -3 -175 -1 -188 13 -14 14 -16 130 -16 1148 0 623
3 1136 7 1139 16 17 50 -1 203 -108z m635 -446 c77 -54 155 -112 173 -127 l32
-29 0 -780 c0 -613 -3 -783 -12 -790 -7 -6 -91 -14 -187 -17 -156 -7 -175 -6
-192 10 -18 17 -19 46 -19 924 0 671 3 909 12 918 15 15 22 10 193 -109z"/>
</g>
</svg>
