<?xml version="1.0" encoding="UTF-8"?>
<svg version="1.1" xmlns="http://www.w3.org/2000/svg" width="707" height="707">
<path d="M0 0 C0.64535013 -0.00155999 1.29070026 -0.00311998 1.95560646 -0.00472724 C4.13367574 -0.00873886 6.3116762 -0.005547 8.48974609 -0.00241089 C10.04490195 -0.00376486 11.60005748 -0.00554477 13.1552124 -0.00772095 C17.39063039 -0.01229579 21.62602413 -0.01050551 25.86144257 -0.00734186 C30.28393115 -0.00481852 34.70641759 -0.00715573 39.12890625 -0.00872803 C46.55713272 -0.0105498 53.98534926 -0.00814321 61.41357422 -0.00338745 C70.01423501 0.00205518 78.61487209 0.00029253 87.2155323 -0.00521386 C94.58620978 -0.00974477 101.9568801 -0.01039564 109.32755852 -0.00777519 C113.73573063 -0.00621229 118.14389158 -0.00601899 122.55206299 -0.00931168 C126.69536708 -0.01219008 130.83864047 -0.01021528 134.98194122 -0.00441742 C136.50700072 -0.00308965 138.03206278 -0.00348422 139.55712128 -0.00568008 C141.63023871 -0.00839095 143.70325621 -0.00501129 145.77636719 0 C146.93929291 0.00037703 148.10221863 0.00075405 149.30038452 0.0011425 C151.88818359 0.12698364 151.88818359 0.12698364 152.88818359 1.12698364 C152.92882191 2.79315479 152.9309046 4.46086459 152.88818359 6.12698364 C151.89302734 6.41186646 150.89787109 6.69674927 149.87255859 6.99026489 C149.23125 7.17411743 148.58994141 7.35796997 147.92919922 7.5473938 C145.98629162 8.09912378 144.03889357 8.63496763 142.09130859 9.16995239 C129.03725952 12.88263185 117.07465399 18.9244452 108.88818359 30.12698364 C108.22818359 30.12698364 107.56818359 30.12698364 106.88818359 30.12698364 C106.61876953 30.69288208 106.34935547 31.25878052 106.07177734 31.84182739 C104.83301894 34.23348965 103.4141493 36.42911803 101.95068359 38.68948364 C95.31163106 49.88984122 93.79416712 63.42841748 96.29541016 76.20755005 C98.88309214 86.10705405 103.48587945 95.42133383 112.23974609 101.02151489 C114.76951854 102.71802106 116.73849376 104.97729381 118.88818359 107.12698364 C120.71455503 108.58107313 122.58618071 109.95935958 124.47021484 111.33792114 C126.81878977 113.07563894 129.12582847 114.86105999 131.42944336 116.65774536 C137.38258188 121.2927709 143.45825549 125.64886399 149.69287109 129.90042114 C152.88738792 132.1264292 155.98303194 134.44951473 159.07568359 136.81448364 C162.66129411 139.5403035 166.23519983 142.00553344 170.13818359 144.25198364 C174.11741409 146.5510946 177.31604264 149.17494953 180.69287109 152.27151489 C184.23246606 155.26316544 188.12726532 157.69364717 192.00537109 160.22073364 C195.06741566 162.24550024 197.98284211 164.40069524 200.89599609 166.63088989 C204.01333253 168.97194843 207.22920764 171.16944581 210.43115234 173.39260864 C213.34317138 175.44815149 216.18057884 177.58922379 219.00146484 179.76760864 C221.21933765 181.36557911 223.54261879 182.7239289 225.88818359 184.12698364 C227.48161272 185.21653038 229.06481767 186.32115983 230.63818359 187.43948364 C234.7757182 190.37179045 238.9833773 193.15768555 243.27099609 195.86526489 C243.80466797 196.28163208 244.33833984 196.69799927 244.88818359 197.12698364 C244.88818359 197.78698364 244.88818359 198.44698364 244.88818359 199.12698364 C245.55978516 199.34612427 246.23138672 199.56526489 246.92333984 199.79104614 C250.80311222 201.53924397 253.94549187 203.94072172 257.32568359 206.50198364 C261.77495439 209.8400524 266.25650898 213.04324746 270.88818359 216.12698364 C273.32234552 217.89519889 275.72808603 219.7011647 278.13818359 221.50198364 C283.32774549 225.36095444 288.54614216 228.89240159 294.22802734 232.00588989 C294.77587891 232.37585083 295.32373047 232.74581177 295.88818359 233.12698364 C295.88818359 233.78698364 295.88818359 234.44698364 295.88818359 235.12698364 C296.77505859 235.35385864 297.66193359 235.58073364 298.57568359 235.81448364 C302.43294281 237.34283164 303.99369025 239.16670636 306.88818359 242.12698364 C311.00533712 245.22848175 315.20899465 248.18010765 319.70068359 250.71292114 C320.42255859 251.17956177 321.14443359 251.64620239 321.88818359 252.12698364 C321.88818359 252.78698364 321.88818359 253.44698364 321.88818359 254.12698364 C322.41541016 254.35643677 322.94263672 254.58588989 323.48583984 254.82229614 C326.68506074 256.5597592 329.46969268 258.76288677 332.32568359 261.00198364 C332.88578125 261.43639771 333.44587891 261.87081177 334.02294922 262.31838989 C338.37487827 265.70040243 342.69675048 269.10930119 346.88818359 272.68948364 C349.67532444 275.10056537 349.67532444 275.10056537 352.26318359 276.43948364 C356.32854475 279.0529301 359.7488881 282.45798072 362.88818359 286.12698364 C362.88818359 286.78698364 362.88818359 287.44698364 362.88818359 288.12698364 C363.43853271 288.35281128 363.98888184 288.57863892 364.5559082 288.81130981 C367.59886246 290.52788895 369.73099797 292.71021512 372.20458984 295.17776489 C372.70232407 295.67358566 373.20005829 296.16940643 373.71287537 296.68025208 C374.76164599 297.72766527 375.80790941 298.7775942 376.85180664 299.8298645 C378.44185868 301.43059944 380.04226005 303.02041914 381.64404297 304.60940552 C382.6648669 305.63155157 383.68506998 306.65431812 384.70458984 307.67776489 C385.62699463 308.60242554 386.54939941 309.52708618 387.49975586 310.47976685 C389.70973752 312.92920272 391.26328456 315.27399106 392.88818359 318.12698364 C395.39603635 320.9559391 397.99792069 323.67637103 400.61083984 326.40823364 C402.77902517 328.99666759 403.7720962 330.98899878 404.88818359 334.12698364 C405.50693359 334.74573364 406.12568359 335.36448364 406.76318359 336.00198364 C409.47620276 338.71500281 411.09293142 341.7807313 412.88818359 345.12698364 C413.41154297 346.06026489 413.93490234 346.99354614 414.47412109 347.95510864 C418.88818359 355.87140853 418.88818359 355.87140853 418.88818359 358.12698364 C419.54818359 358.12698364 420.20818359 358.12698364 420.88818359 358.12698364 C421.17048828 359.00612427 421.45279297 359.88526489 421.74365234 360.79104614 C422.76857403 363.77836054 423.93012737 366.61322714 425.20068359 369.50198364 C428.01730298 376.19041611 430.23015282 383.00520196 432.25827026 389.96992493 C432.70612824 391.50355805 433.1723973 393.03186685 433.65115356 394.55613708 C435.6301918 401.17667905 436.3083107 407.12157014 436.21630859 414.00979614 C436.21443542 414.99068207 436.21256226 415.97156799 436.21063232 416.98217773 C436.20396932 419.03080709 436.19017169 421.07942499 436.16943359 423.12796021 C436.13791539 426.27879518 436.12841906 429.42913069 436.12255859 432.58010864 C436.11340161 434.57751065 436.10303004 436.57490754 436.09130859 438.57229614 C436.08705872 439.51694733 436.08280884 440.46159851 436.07843018 441.43487549 C436.06401886 442.73290604 436.06401886 442.73290604 436.04931641 444.05715942 C436.0390744 445.20319138 436.0390744 445.20319138 436.02862549 446.37237549 C435.88818359 448.12698364 435.88818359 448.12698364 434.88818359 449.12698364 C432.88057546 449.23030358 430.8692823 449.26221152 428.85902405 449.26742554 C426.89238548 449.27599075 426.89238548 449.27599075 424.88601685 449.284729 C423.41937265 449.28597449 421.95272835 449.28709956 420.48608398 449.28811646 C418.95225403 449.29274215 417.41842522 449.29776647 415.88459778 449.30316162 C411.70697044 449.31631058 407.52935918 449.32273529 403.35171437 449.32717228 C400.74473747 449.33009865 398.13776501 449.33420259 395.53079033 449.33867645 C387.38292684 449.35235722 379.23507345 449.36202135 371.08719927 449.36587834 C361.66519169 449.37036236 352.24332894 449.38792368 342.82136542 449.41687894 C335.5491843 449.43845588 328.27704406 449.44858046 321.00483125 449.44991946 C316.65637844 449.45097026 312.30806167 449.45693603 307.95964241 449.47473907 C303.87126579 449.49115133 299.78312847 449.4934089 295.69473076 449.48460007 C294.19104753 449.48382603 292.6873518 449.48822036 291.18370056 449.49805832 C289.13728112 449.5106662 287.09076667 449.50315037 285.04432678 449.49447632 C283.89707154 449.49594288 282.7498163 449.49740944 281.56779575 449.49892044 C280.68352374 449.3761813 279.79925173 449.25344215 278.88818359 449.12698364 C278.22818359 448.13698364 277.56818359 447.14698364 276.88818359 446.12698364 C279.45554757 442.27593768 281.03442335 442.29950375 285.45068359 441.18948364 C296.77898195 438.12621929 306.6382257 433.70693985 314.88818359 425.12698364 C315.54818359 425.12698364 316.20818359 425.12698364 316.88818359 425.12698364 C317.15115234 424.54046021 317.41412109 423.95393677 317.68505859 423.34963989 C318.94092873 421.02954214 320.31702528 419.46357441 322.13818359 417.56448364 C333.49441649 404.90157123 334.08138884 391.67020209 333.265625 375.34573364 C332.4036635 367.99508657 328.96145631 362.16256292 324.88818359 356.12698364 C323.85757813 354.51630005 323.85757813 354.51630005 322.80615234 352.87307739 C319.90713804 348.72235019 316.35618013 345.98863379 312.01318359 343.43948364 C311.31193359 343.00635864 310.61068359 342.57323364 309.88818359 342.12698364 C309.88818359 341.46698364 309.88818359 340.80698364 309.88818359 340.12698364 C308.78796875 339.73639771 308.78796875 339.73639771 307.66552734 339.33792114 C304.83116446 338.10212298 302.83801608 336.70100018 300.45068359 334.75198364 C297.02781272 332.01481104 293.54804494 329.54249213 289.88818359 327.12698364 C288.09296064 325.81935211 286.30168558 324.5062928 284.51318359 323.18948364 C281.15007046 320.71890669 277.78092294 318.39503988 274.20068359 316.25198364 C273.10755859 315.55073364 272.01443359 314.84948364 270.88818359 314.12698364 C270.88818359 313.46698364 270.88818359 312.80698364 270.88818359 312.12698364 C270.18693359 311.87948364 269.48568359 311.63198364 268.76318359 311.37698364 C263.46606698 309.07388946 259.01253999 305.50573529 254.43505859 302.03713989 C250.404202 299.01399745 246.32879159 296.05151979 242.25561523 293.08572388 C239.52260341 291.08913748 236.83575788 289.0842012 234.21240234 286.94338989 C232.00543858 285.2186199 229.87813759 283.95637925 227.38818359 282.68948364 C223.54126924 280.62050174 220.98157127 278.22037132 217.88818359 275.12698364 C216.47115094 274.29923923 215.03090506 273.51058291 213.57568359 272.75198364 C209.43768024 270.57626141 206.20073145 267.97772329 202.81005859 264.77542114 C200.6372672 262.91176674 198.36036058 261.5656165 195.88818359 260.12698364 C189.2920104 255.71429239 182.95535596 250.95798844 176.64990234 246.14260864 C174.12924085 244.30291793 171.57772171 242.70360944 168.88818359 241.12698364 C167.62657853 240.29005273 166.37512306 239.43745641 165.13818359 238.56448364 C164.54521484 238.15069458 163.95224609 237.73690552 163.34130859 237.31057739 C161.88818359 236.12698364 161.88818359 236.12698364 160.88818359 234.12698364 C159.23722528 233.10125736 157.56749859 232.10559436 155.88818359 231.12698364 C154.14564323 229.89569552 152.41699845 228.64457217 150.70068359 227.37698364 C142.71161009 221.52688564 134.67011666 215.89916689 126.23583984 210.70510864 C124.14164644 209.29736465 122.62252786 207.93435293 120.88818359 206.12698364 C115.79969313 201.78293671 110.94870403 198.01294576 104.88818359 195.12698364 C103.53449763 193.81431847 102.20018763 192.48131039 100.88818359 191.12698364 C100.00130859 190.61135864 99.11443359 190.09573364 98.20068359 189.56448364 C95.88818359 188.12698364 95.88818359 188.12698364 94.88818359 185.12698364 C93.22438552 184.45318975 91.55708815 183.78802812 89.88818359 183.12698364 C87.90266662 181.60429752 85.96809955 180.01393585 84.07568359 178.37698364 C80.61096139 175.4097327 77.14050421 172.50117812 73.45068359 169.81448364 C70.29623391 167.49083552 67.59485598 164.97245974 64.88818359 162.12698364 C61.50694729 158.65569019 58.12834652 155.27553736 54.38818359 152.18948364 C51.05255387 149.39982022 48.32495716 146.25659052 45.52099609 142.94338989 C43.81523385 140.94484827 43.81523385 140.94484827 41.13818359 138.93948364 C38.58333312 136.88140965 37.55438023 134.94422433 35.88818359 132.12698364 C33.83376133 129.30914766 31.7356202 126.52808583 29.63037109 123.74807739 C28.07538775 121.40862936 27.31314001 119.86344543 26.88818359 117.12698364 C26.22818359 117.12698364 25.56818359 117.12698364 24.88818359 117.12698364 C24.88818359 116.46698364 24.88818359 115.80698364 24.88818359 115.12698364 C24.22818359 115.12698364 23.56818359 115.12698364 22.88818359 115.12698364 C14.9275691 101.57700153 7.59453397 87.79457016 1.88818359 73.12698364 C1.54142578 72.25042114 1.19466797 71.37385864 0.83740234 70.47073364 C-4.1798491 57.29802714 -7.28093165 44.17850953 -7.24462891 30.06838989 C-7.246064 28.82375221 -7.246064 28.82375221 -7.24752808 27.55397034 C-7.24820371 25.81699548 -7.24639285 24.080018 -7.2421875 22.3430481 C-7.23678236 19.67266286 -7.24217769 17.00244217 -7.24853516 14.33206177 C-7.2478752 12.6400041 -7.24659575 10.94794654 -7.24462891 9.25588989 C-7.24665314 8.454944 -7.24867737 7.65399811 -7.25076294 6.82878113 C-7.22120187 -0.06305571 -6.75728425 0.00219074 0 0 Z " fill="#F0F0F0" transform="translate(139.11181640625,128.87301635742188)"/>
<path d="M0 0 C1.31253754 -0.00281982 2.62507507 -0.00563965 3.97738647 -0.00854492 C5.44561781 -0.00660032 6.91384901 -0.00455213 8.38208008 -0.00241089 C9.91753175 -0.00376486 11.45298311 -0.00554477 12.98843384 -0.00772095 C17.17013463 -0.01229573 21.35181087 -0.01050554 25.53351212 -0.00734186 C29.89994627 -0.00481849 34.26637826 -0.00715573 38.6328125 -0.00872803 C45.96688211 -0.01054979 53.30094168 -0.00814324 60.63500977 -0.00338745 C69.12660751 0.00205518 77.61818124 0.00029253 86.1097784 -0.00521386 C93.38703842 -0.00974479 100.66429119 -0.01039563 107.94155216 -0.00777519 C112.29383297 -0.00621231 116.64610248 -0.00601895 120.99838257 -0.00931168 C125.08915715 -0.01219011 129.17990064 -0.01021521 133.27067184 -0.00441742 C134.77638065 -0.00308967 136.28209205 -0.00348419 137.78779984 -0.00568008 C139.83460652 -0.00839098 141.8814189 -0.0043973 143.92822266 0 C145.07639969 0.00037703 146.22457672 0.00075405 147.407547 0.0011425 C149.96411133 0.12698364 149.96411133 0.12698364 150.96411133 1.12698364 C151.06984332 3.65516419 151.11089251 6.1561622 151.109375 8.68508911 C151.11273361 9.47711227 151.11609222 10.26913544 151.11955261 11.0851593 C151.12910168 13.72151229 151.13100851 16.3578019 151.13208008 18.99417114 C151.13529284 20.82727078 151.13865693 22.66037015 151.14216614 24.49346924 C151.14816931 28.34885247 151.15000512 32.20421325 151.14941406 36.05960083 C151.14931304 40.97638819 151.16289771 45.89302918 151.18018627 50.80978203 C151.1913691 54.60358323 151.19333125 58.39734994 151.19280434 62.19116592 C151.1939776 64.00186792 151.19836232 65.812571 151.2061367 67.62325668 C151.2425424 76.98847211 151.21715286 85.97088842 148.96411133 95.12698364 C148.73264656 96.12943871 148.73264656 96.12943871 148.49650574 97.15214539 C143.27795693 118.52031917 133.98242658 143.01188133 119.65551758 159.99807739 C116.96313689 163.38687064 114.83452027 167.11776942 112.63989258 170.84182739 C110.87026302 173.25495861 109.65923569 173.97193034 106.96411133 175.12698364 C105.83895048 176.95982807 105.83895048 176.95982807 104.96411133 179.12698364 C102.81574625 183.54306742 99.84268739 186.11612048 96.15942383 189.22854614 C91.92562193 192.88980543 87.64745687 196.76108754 84.39379883 201.33401489 C82.96411133 203.12698364 82.96411133 203.12698364 80.40161133 203.62698364 C79.59723633 203.79198364 78.79286133 203.95698364 77.96411133 204.12698364 C76.81402823 206.0937128 76.81402823 206.0937128 75.96411133 208.12698364 C74.97411133 208.45698364 73.98411133 208.78698364 72.96411133 209.12698364 C72.29173713 210.45744791 71.62552894 211.79103867 70.96411133 213.12698364 C69.33178711 214.43557739 69.33178711 214.43557739 67.40942383 215.56448364 C66.71204102 215.98471802 66.0146582 216.40495239 65.29614258 216.83792114 C64.56782227 217.26331177 63.83950195 217.68870239 63.08911133 218.12698364 C57.6033529 221.25284502 57.6033529 221.25284502 52.89379883 225.37698364 C49.90836175 228.08442455 47.96919654 228.25471784 43.96411133 228.12698364 C40.74149608 226.53617805 38.0281092 224.4096884 35.21411133 222.18948364 C34.42423828 221.59208374 33.63436523 220.99468384 32.82055664 220.37918091 C31.24541195 219.18719258 29.6759138 217.98770072 28.11254883 216.78030396 C25.34991894 214.65433468 22.53965515 212.60601668 19.71411133 210.56448364 C18.86333008 209.94315552 18.01254883 209.32182739 17.13598633 208.68167114 C15.44452311 207.47087553 13.7115293 206.31802442 11.96411133 205.18948364 C8.96744565 203.12927599 6.04354286 201.01962784 3.15161133 198.81448364 C2.19641602 198.09647583 1.2412207 197.37846802 0.25708008 196.63870239 C-2.60593779 193.50255164 -2.80733627 191.29679532 -3.03588867 187.12698364 C-2.18704102 186.62038208 -2.18704102 186.62038208 -1.32104492 186.10354614 C-0.58756836 185.65753052 0.1459082 185.21151489 0.90161133 184.75198364 C1.63250977 184.31112427 2.3634082 183.87026489 3.11645508 183.41604614 C5.10183405 182.24958524 5.10183405 182.24958524 5.96411133 180.12698364 C6.62411133 180.12698364 7.28411133 180.12698364 7.96411133 180.12698364 C8.23223633 179.52885864 8.50036133 178.93073364 8.77661133 178.31448364 C9.96328539 176.12850511 11.06010245 174.7136577 12.96411133 173.12698364 C13.62411133 173.12698364 14.28411133 173.12698364 14.96411133 173.12698364 C15.23223633 172.48760864 15.50036133 171.84823364 15.77661133 171.18948364 C16.96411133 169.12698364 16.96411133 169.12698364 19.96411133 168.12698364 C20.97327166 166.36106478 20.97327166 166.36106478 21.96411133 164.12698364 C23.96411133 160.87698364 23.96411133 160.87698364 25.96411133 158.12698364 C26.62411133 158.12698364 27.28411133 158.12698364 27.96411133 158.12698364 C28.17036133 157.46698364 28.37661133 156.80698364 28.58911133 156.12698364 C29.79627854 153.49316428 30.94793823 151.74899967 32.71411133 149.50198364 C39.5285954 140.63653835 43.75028533 130.41072566 47.96411133 120.12698364 C48.27348633 119.42057739 48.58286133 118.71417114 48.90161133 117.98635864 C57.01494785 98.54815656 56.72156226 72.91964085 49.96411133 53.12698364 C48.72036882 50.73137647 47.34808757 48.44750605 45.96411133 46.12698364 C45.12817383 43.93948364 45.12817383 43.93948364 44.58911133 42.12698364 C43.22075049 38.19007957 41.06082413 35.6299425 38.17114258 32.66995239 C36.96411133 31.12698364 36.96411133 31.12698364 36.96411133 28.12698364 C36.05661133 27.87948364 35.14911133 27.63198364 34.21411133 27.37698364 C30.8391501 26.07892163 29.22309012 24.90726523 26.96411133 22.12698364 C26.96411133 21.46698364 26.96411133 20.80698364 26.96411133 20.12698364 C26.07723633 19.87948364 25.19036133 19.63198364 24.27661133 19.37698364 C20.96411133 18.12698364 20.96411133 18.12698364 18.77661133 16.25198364 C12.35628338 11.40106919 3.89154559 9.71904078 -3.82104492 7.83792114 C-6.03588867 7.12698364 -6.03588867 7.12698364 -8.03588867 5.12698364 C-7.18957176 -0.458708 -5.3028461 0.00174129 0 0 Z " fill="#F0F0F0" transform="translate(424.035888671875,128.87301635742188)"/>
<path d="M0 0 C2.125 2.25 2.125 2.25 4 5 C5.96507372 6.38429153 7.97109502 7.71107705 10 9 C12.10677818 10.35010016 14.21097873 11.70423158 16.3125 13.0625 C17.36050781 13.73410156 18.40851563 14.40570313 19.48828125 15.09765625 C22 17 22 17 23 20 C25.42383077 21.16953416 25.42383077 21.16953416 28 22 C28.66 22.33 29.32 22.66 30 23 C30 23.66 30 24.32 30 25 C30.99 25.309375 30.99 25.309375 32 25.625 C36.39172784 27.63787526 40.56788333 30.56788333 44 34 C44.375 36.25 44.375 36.25 44 39 C41.35752899 42.22968679 39.26474248 44.52613972 35 45 C35 45.66 35 46.32 35 47 C34.34 47 33.68 47 33 47 C32.731875 47.639375 32.46375 48.27875 32.1875 48.9375 C31 51 31 51 28 52 C27.67 52.99 27.34 53.98 27 55 C24.1756906 58.0810648 21.12753235 60.74144654 17.9375 63.4375 C14.58524241 66.35821697 12.29313746 69.15344684 10 73 C9.47792969 73.79148437 8.95585937 74.58296875 8.41796875 75.3984375 C1.66144677 85.67306133 -3.63508136 96.17180115 -7 108 C-7.82795169 110.33524836 -8.66148643 112.66852324 -9.5 115 C-17.11723171 137.32051906 -15.60834658 161.54633035 -5.66796875 182.85546875 C-3.49183531 186.92182514 -3.49183531 186.92182514 -0.5390625 190.421875 C1 192 1 192 2.38671875 194.35546875 C10.32745963 207.37213117 23.93633986 214.91181854 38.25 218.75 C39.35915771 219.01176025 39.35915771 219.01176025 40.49072266 219.27880859 C45.66453814 220.56288303 45.66453814 220.56288303 47.546875 223.015625 C48 225 48 225 47 227 C26.54701526 227.02332725 6.09403321 227.04097832 -14.35896206 227.05181217 C-23.85495383 227.0569755 -33.35093735 227.06401889 -42.84692383 227.07543945 C-51.12052845 227.08538517 -59.39412711 227.09185316 -67.66773754 227.09408849 C-72.0513359 227.09539579 -76.43491716 227.09848285 -80.81851006 227.10573006 C-84.939635 227.11248851 -89.06073573 227.11461732 -93.18186569 227.11310768 C-94.69886341 227.11338409 -96.2158619 227.11539025 -97.73285484 227.11920547 C-99.79507301 227.12414001 -101.85719826 227.1229992 -103.91941833 227.12025452 C-105.07626853 227.12117631 -106.23311872 227.1220981 -107.42502499 227.12304783 C-110 227 -110 227 -111 226 C-111.10498409 223.76325066 -111.13857548 221.52313731 -111.14526367 219.28393555 C-111.14862228 218.58130081 -111.1519809 217.87866608 -111.15544128 217.15473938 C-111.16499111 214.81538146 -111.16689743 212.476095 -111.16796875 210.13671875 C-111.17118223 208.50779694 -111.17454637 206.87887542 -111.17805481 205.24995422 C-111.18405869 201.82247247 -111.18589379 198.39501595 -111.18530273 194.9675293 C-111.18520188 190.60460806 -111.19876831 186.2418524 -111.21607494 181.87897015 C-111.22728167 178.50632508 -111.22921918 175.13371867 -111.22869301 171.7610569 C-111.2298634 170.15493011 -111.23423155 168.54880201 -111.24202538 166.94269371 C-111.3004424 153.64255367 -109.58927125 141.42716105 -106.1875 128.5625 C-105.92469238 127.56259033 -105.66188477 126.56268066 -105.39111328 125.5324707 C-103.39637107 118.11388358 -100.99423484 111.07915315 -98 104 C-97.69707031 103.195625 -97.39414063 102.39125 -97.08203125 101.5625 C-89.64682341 81.82186083 -77.56707787 61.15880933 -62.3125 46.36328125 C-60.8807371 45.01545074 -60.8807371 45.01545074 -60.01953125 42.99609375 C-58.86323651 40.732237 -57.66202265 39.64299374 -55.6875 38.0625 C-53.55534553 36.31046323 -51.61861645 34.60830878 -49.6875 32.625 C-46.45336464 29.46607709 -42.96781041 26.73920533 -39.40234375 23.96484375 C-37.11218499 22.09175456 -35.08365588 20.09620803 -33 18 C-9.85278689 -1.25114754 -9.85278689 -1.25114754 0 0 Z " fill="#F0F0F0" transform="translate(243,351)"/>
<path d="M0 0 C1.19173828 0.00410889 2.38347656 0.00821777 3.61132812 0.01245117 C4.90425781 0.01438477 6.1971875 0.01631836 7.52929688 0.01831055 C8.5412915 0.02761597 8.5412915 0.02761597 9.57373047 0.03710938 C11.63456595 0.05534901 13.69495166 0.05761915 15.75585938 0.05737305 C25.86216911 0.10271541 25.86216911 0.10271541 28.14257812 1.24291992 C28.18924511 22.72169635 28.2245409 44.20046444 28.24620247 65.67928123 C28.25652647 75.65168322 28.27060821 85.62405375 28.29345703 95.59643555 C28.31335658 104.28572568 28.32628638 112.97499304 28.33075511 121.66430533 C28.33336834 126.26760973 28.33953373 130.87084897 28.35403824 135.47413254 C28.36756795 139.80293487 28.37181016 144.13164492 28.36879349 148.46046638 C28.36934573 150.05283801 28.37335055 151.64521259 28.38098907 153.23756599 C28.39087838 155.40461664 28.38856933 157.57131471 28.38308716 159.7383728 C28.38493074 160.95329596 28.38677433 162.16821911 28.38867378 163.41995811 C28.14257812 166.24291992 28.14257812 166.24291992 26.14257812 168.24291992 C21.03169031 168.14125669 17.57496806 164.91289741 13.70507812 161.93041992 C12.41562563 160.95395389 11.12527232 159.97867618 9.83398438 159.00463867 C9.21023926 158.53074707 8.58649414 158.05685547 7.94384766 157.56860352 C6.33388211 156.38371426 4.66115749 155.28521536 2.98242188 154.19995117 C1.57669922 153.2312207 1.57669922 153.2312207 0.14257812 152.24291992 C-0.72863174 151.66313889 -1.59984161 151.08335785 -2.49745178 150.48600769 C-6.77853175 146.06076203 -5.52242944 139.12559649 -5.45678711 133.39648438 C-5.45865178 131.9704343 -5.46268974 130.54438565 -5.46873474 129.11834717 C-5.47870271 125.25264954 -5.45755337 121.38768605 -5.4302547 117.52209496 C-5.40641804 113.47781307 -5.40936962 109.43354556 -5.40895081 105.38920593 C-5.40432448 98.6009783 -5.38069032 91.81303139 -5.34448242 85.02490234 C-5.30269948 77.17053774 -5.28516458 69.31642568 -5.28186268 61.46195632 C-5.27826723 53.10429667 -5.2594027 44.74672819 -5.2347424 36.38910651 C-5.22850664 33.97772481 -5.22487491 31.56635005 -5.2217083 29.15496254 C-5.21582006 25.3718485 -5.19954176 21.58891597 -5.17510414 17.80587769 C-5.16764651 16.41509084 -5.16359108 15.02428112 -5.16312408 13.63347435 C-5.16187191 11.74046879 -5.1471102 9.8474863 -5.13157654 7.95454407 C-5.12692603 6.89360188 -5.12227552 5.8326597 -5.11748409 4.73956776 C-4.728158 1.00196157 -3.68980615 0.31368396 0 0 Z " fill="#F0F0F0" transform="translate(364.857421875,128.757080078125)"/>
<path d="M0 0 C4.48501189 0.24243308 6.60845497 2.24559493 10 5 C11.96502175 6.35409305 13.94482648 7.68693842 15.9375 9 C17.43603516 9.99 17.43603516 9.99 18.96484375 11 C21.04878055 12.37319902 23.14599561 13.72639338 25.25390625 15.0625 C28 17 28 17 30 20 C30.25168228 22.64369297 30.25168228 22.64369297 30.25396729 25.89002991 C30.25960693 27.11973007 30.26524658 28.34943024 30.27105713 29.61639404 C30.26716844 30.98132383 30.2630721 32.34625304 30.25878906 33.71118164 C30.26149872 35.14678627 30.2650595 36.58238951 30.26940918 38.01799011 C30.27853773 41.91868338 30.27498725 45.81927102 30.26865101 49.71996617 C30.2635944 53.79764294 30.26828142 57.87531055 30.27142334 61.95298767 C30.27506356 68.80013659 30.27026199 75.64724239 30.26074219 82.49438477 C30.24985318 90.41799404 30.25338621 98.34150043 30.264395 106.26510721 C30.27346111 113.06175464 30.27475661 119.85837104 30.26951766 126.65502256 C30.26639478 130.71724252 30.26599738 134.77941406 30.27259064 138.84163094 C30.27835382 142.65915449 30.27438621 146.47654491 30.26280212 150.29405403 C30.26015019 151.69775165 30.26092968 153.10146042 30.26532745 154.50515366 C30.270763 156.4157497 30.26274974 158.32637014 30.25396729 160.23695374 C30.25321323 161.3078679 30.25245918 162.37878206 30.25168228 163.48214817 C30 166 30 166 28 168 C25.21850586 168.24291992 25.21850586 168.24291992 21.71484375 168.23046875 C20.46251953 168.22853516 19.21019531 168.22660156 17.91992188 168.22460938 C16.60572266 168.21236328 15.29152344 168.20011719 13.9375 168.1875 C12.61943359 168.18685547 11.30136719 168.18621094 9.94335938 168.18554688 C0.14009123 168.14009123 0.14009123 168.14009123 -1 167 C-1.24787831 164.23718965 -1.42978313 161.49962181 -1.5625 158.73046875 C-1.6049585 157.87462692 -1.64741699 157.0187851 -1.69116211 156.13700867 C-2.08207262 147.49514341 -2.07666033 138.86871965 -2.01858521 130.22015381 C-1.90185557 111.95781198 -2.02440886 93.70212763 -2.25390625 75.44140625 C-2.26613598 74.45580782 -2.27836571 73.47020939 -2.29096603 72.45474434 C-2.41563014 62.4343735 -2.54661127 52.41412232 -2.69097996 42.39401531 C-2.74474316 38.59047463 -2.79417192 34.78688522 -2.84269524 30.98327446 C-2.86658285 29.19565447 -2.8924851 27.40806011 -2.92053413 25.62050056 C-2.95928509 23.14466347 -2.99123545 20.66882173 -3.02172852 18.19287109 C-3.03467453 17.47721639 -3.04762054 16.76156168 -3.06095886 16.02422047 C-3.1106036 11.23512583 -2.81323449 6.71131207 -2 2 C-1.34 1.34 -0.68 0.68 0 0 Z " fill="#F0F0F0" transform="translate(317,410)"/>
<path d="M0 0 C4.73817857 0.38601706 7.64882884 1.75099728 11.51171875 4.45703125 C12.51654297 5.15763672 13.52136719 5.85824219 14.55664062 6.58007812 C15.58982422 7.31677734 16.62300781 8.05347656 17.6875 8.8125 C18.73228516 9.53759766 19.77707031 10.26269531 20.85351562 11.00976562 C29.55248051 17.13208927 29.55248051 17.13208927 32 21 C32.37752342 23.23295689 32.37752342 23.23295689 32.38095093 25.71278381 C32.39364014 27.12810646 32.39364014 27.12810646 32.40658569 28.57202148 C32.400513 29.60020996 32.39444031 30.62839844 32.38818359 31.68774414 C32.39344055 32.77590927 32.39869751 33.8640744 32.40411377 34.98521423 C32.41732751 38.58534051 32.4085711 42.1850254 32.3984375 45.78515625 C32.40045768 48.28332097 32.40336866 50.78148512 32.40713501 53.27964783 C32.41156011 58.51598628 32.40540623 63.75220964 32.39111328 68.98852539 C32.37477854 75.0427934 32.38008192 81.09675845 32.3965925 87.15101916 C32.41184273 92.97629391 32.4102342 98.80145345 32.4014473 104.62673759 C32.39944223 107.10553466 32.40191524 109.58433944 32.40888596 112.06312752 C32.41648028 115.52284547 32.40492434 118.98197632 32.38818359 122.44165039 C32.39729263 123.98696945 32.39729263 123.98696945 32.40658569 125.56350708 C32.39812622 126.50423569 32.38966675 127.44496429 32.38095093 128.41419983 C32.37981985 129.23216569 32.37868877 130.05013155 32.37752342 130.89288425 C31.90612091 133.52397835 31.11910679 134.41118268 29 136 C26.22851562 136.37231445 26.22851562 136.37231445 22.90625 136.36328125 C21.71128906 136.36263672 20.51632812 136.36199219 19.28515625 136.36132812 C18.03605469 136.34521484 16.78695313 136.32910156 15.5 136.3125 C14.25089844 136.31572266 13.00179688 136.31894531 11.71484375 136.32226562 C2.40050383 136.26700255 2.40050383 136.26700255 -1 134 C-1.3719368 131.67958736 -1.3719368 131.67958736 -1.36749268 128.71702576 C-1.37306183 127.5966391 -1.37863098 126.47625244 -1.3843689 125.32191467 C-1.37515411 124.08702805 -1.36593933 122.85214142 -1.35644531 121.57983398 C-1.35848969 120.28392334 -1.36053406 118.9880127 -1.36264038 117.65283203 C-1.367784 114.09296804 -1.35422073 110.53339204 -1.33711338 106.9735744 C-1.32210588 103.25444907 -1.32325211 99.53532791 -1.32244873 95.81617737 C-1.31875368 89.57084214 -1.30377352 83.32561665 -1.28125 77.08032227 C-1.25236327 69.05408316 -1.24202613 61.02793243 -1.2375679 53.001647 C-1.23359311 46.11318984 -1.22109091 39.22475205 -1.20722103 32.33630872 C-1.20311575 30.11609202 -1.20019334 27.895876 -1.19742584 25.67565727 C-1.19163915 21.54732684 -1.17697062 17.41907557 -1.16113281 13.29077148 C-1.16001495 12.05386063 -1.15889709 10.81694977 -1.15774536 9.54255676 C-1.15203522 8.42498993 -1.14632507 7.3074231 -1.14044189 6.1559906 C-1.13746723 5.1787223 -1.13449257 4.20145399 -1.13142776 3.1945715 C-1 1 -1 1 0 0 Z " fill="#F0F0F0" transform="translate(361,442)"/>
<path d="M0 0 C1.30517578 0.00322266 2.61035156 0.00644531 3.95507812 0.00976562 C5.25638672 -0.00634766 6.55769531 -0.02246094 7.8984375 -0.0390625 C9.76532227 -0.0400293 9.76532227 -0.0400293 11.66992188 -0.04101562 C12.81452881 -0.04399658 13.95913574 -0.04697754 15.13842773 -0.05004883 C18.01757812 0.32226562 18.01757812 0.32226562 19.67735004 1.51215839 C21.51002001 3.98735586 21.37263697 5.59167567 21.34037781 8.65629578 C21.33608765 9.76267395 21.33179749 10.86905212 21.32737732 12.00895691 C21.30724075 13.22311783 21.28710419 14.43727875 21.26635742 15.68823242 C21.25704193 16.96638824 21.24772644 18.24454407 21.23812866 19.56143188 C21.21223254 23.06757221 21.16768264 26.57325836 21.11983085 30.07915854 C21.07298525 33.7426001 21.04322788 37.40617902 21.01167297 41.06977844 C20.94931041 48.00782801 20.87153676 54.94561618 20.78825265 61.8834427 C20.69418788 69.78167883 20.61726277 77.68005262 20.54179132 85.57848489 C20.38615144 101.82664178 20.20894191 118.07448939 20.01757812 134.32226562 C18.16821289 135.38818359 18.16821289 135.38818359 16.01757812 136.32226562 C13.60742188 135.26757812 13.60742188 135.26757812 10.95507812 133.44726562 C9.99214844 132.79371094 9.02921875 132.14015625 8.03710938 131.46679688 C7.04066406 130.75910156 6.04421875 130.05140625 5.01757812 129.32226562 C4.03144531 128.62488281 3.0453125 127.9275 2.02929688 127.20898438 C-0.66367187 125.27398248 -3.33652553 123.32111255 -5.98242188 121.32226562 C-6.8925 120.64550781 -7.80257813 119.96875 -8.74023438 119.27148438 C-10.98242188 117.32226562 -10.98242188 117.32226562 -11.98242188 114.32226562 C-12.07563252 112.79136672 -12.11300229 111.25673791 -12.11613464 109.7230072 C-12.12039963 108.77938828 -12.12466461 107.83576935 -12.12905884 106.86355591 C-12.12860565 105.83020111 -12.12815247 104.79684631 -12.12768555 103.73217773 C-12.13104416 102.64255234 -12.13440277 101.55292694 -12.13786316 100.43028259 C-12.14738081 96.82004667 -12.14931649 93.20985707 -12.15039062 89.59960938 C-12.15360195 87.09762045 -12.15696592 84.59563171 -12.16047668 82.09364319 C-12.16646951 76.84717507 -12.1683591 71.60071877 -12.16772461 66.35424805 C-12.16712309 60.28471038 -12.17769049 54.21526138 -12.19346827 48.14574617 C-12.20809839 42.3103543 -12.21171331 36.47499769 -12.21111488 30.63958931 C-12.21229882 28.15438029 -12.21674354 25.66917068 -12.22444725 23.18397331 C-12.23419052 19.71689248 -12.23139188 16.25004315 -12.2253418 12.78295898 C-12.2309613 11.74757996 -12.23658081 10.71220093 -12.24237061 9.64544678 C-12.23817612 8.70464767 -12.23398163 7.76384857 -12.22966003 6.79454041 C-12.2302048 5.97435393 -12.23074957 5.15416746 -12.23131084 4.30912685 C-11.48035325 -1.68570903 -4.52895938 0.0258261 0 0 Z " fill="#F0F0F0" transform="translate(326.982421875,128.677734375)"/>
</svg>
